<svg width="24" height="24" viewBox="0 0 24 24" fill="none" xmlns="http://www.w3.org/2000/svg">
<path d="M16.5195 5.65003L13.4195 3.25003C13.0195 2.85003 12.1195 2.65003 11.5195 2.65003H7.71953C6.51953 2.65003 5.21953 3.55003 4.91953 4.75003L2.51953 12.05C2.01953 13.45 2.91953 14.65 4.41953 14.65H8.41953C9.01953 14.65 9.51953 15.15 9.41953 15.85L8.91953 19.05C8.71953 19.95 9.31953 20.95 10.2195 21.25C11.0195 21.55 12.0195 21.15 12.4195 20.55L16.5195 14.45" stroke="#709FDC" stroke-width="1.5" stroke-miterlimit="10"/>
<path d="M21.6201 5.64997V15.45C21.6201 16.85 21.0201 17.35 19.6201 17.35H18.6201C17.2201 17.35 16.6201 16.85 16.6201 15.45V5.64997C16.6201 4.24997 17.2201 3.74998 18.6201 3.74998H19.6201C21.0201 3.74998 21.6201 4.24997 21.6201 5.64997Z" stroke="#709FDC" stroke-width="1.5" stroke-linecap="round" stroke-linejoin="round"/>
</svg>
