<svg width="20" height="20" viewBox="0 0 20 20" fill="none" xmlns="http://www.w3.org/2000/svg">
<g clip-path="url(#clip0_17_2179)">
<path d="M3.82296 0.178284C1.82104 0.178284 0.178345 1.82097 0.178345 3.82289V16.1762C0.178345 18.1781 1.82104 19.8208 3.82296 19.8208H16.1763C18.1782 19.8208 19.8209 18.1781 19.8209 16.1762V3.82289C19.8209 1.82097 18.1782 0.178284 16.1763 0.178284H3.82296ZM3.82296 1.96397H16.1763C17.2121 1.96397 18.0352 2.78706 18.0352 3.82289V16.1762C18.0352 17.212 17.2121 18.0351 16.1763 18.0351H3.82296C2.78712 18.0351 1.96403 17.212 1.96403 16.1762V3.82289C1.96403 2.78706 2.78712 1.96397 3.82296 1.96397ZM9.7485 6.63395C9.09282 6.62698 8.53479 6.63395 8.2209 6.78741C8.01164 6.88855 7.85121 7.11874 7.94886 7.1292C8.07093 7.14664 8.34646 7.20593 8.49294 7.40473C8.68128 7.65933 8.6743 8.23479 8.6743 8.23479C8.6743 8.23479 8.77893 9.81819 8.4197 10.017C8.17208 10.153 7.83377 9.87748 7.10136 8.61844C6.72818 7.96973 6.44568 7.25476 6.44568 7.25476C6.44568 7.25476 6.39337 7.12223 6.29571 7.05247C6.17713 6.96528 6.01321 6.93738 6.01321 6.93738L4.26589 6.94784C4.26589 6.94784 4.00431 6.95831 3.91015 7.06991C3.82296 7.17454 3.90317 7.38031 3.90317 7.38031C3.90317 7.38031 5.27034 10.5785 6.81886 12.1898C8.23834 13.6686 9.84964 13.5709 9.84964 13.5709H10.5821C10.5821 13.5709 10.8018 13.5465 10.9134 13.4279C11.018 13.3163 11.0145 13.1071 11.0145 13.1071C11.0145 13.1071 11.0006 12.127 11.454 11.9805C11.9039 11.841 12.4759 12.9292 13.0862 13.3477C13.5501 13.6651 13.9023 13.5953 13.9023 13.5953L15.5345 13.5709C15.5345 13.5709 16.3855 13.5186 15.981 12.8455C15.9496 12.7932 15.7473 12.3502 14.7707 11.4434C13.7454 10.4948 13.8814 10.6483 15.116 9.00557C15.8659 8.00461 16.1658 7.39426 16.0716 7.1292C15.981 6.88158 15.4299 6.94784 15.4299 6.94784L13.5919 6.95831C13.5919 6.95831 13.4559 6.94087 13.3547 7.00016C13.2571 7.05945 13.1943 7.19896 13.1943 7.19896C13.1943 7.19896 12.9014 7.97322 12.5142 8.63239C11.6981 10.0205 11.3668 10.0972 11.2342 10.01C10.9238 9.80773 11.0006 9.20088 11.0006 8.77189C11.0006 7.42217 11.2063 6.86414 10.603 6.71766C10.4042 6.66883 10.2577 6.63744 9.7485 6.63395Z" fill="#709FDC"/>
</g>
<defs>
<clipPath id="clip0_17_2179">
<rect width="19.9997" height="19.9997" fill="white"/>
</clipPath>
</defs>
</svg>
