<svg width="30" height="30" viewBox="0 0 30 30" fill="none" xmlns="http://www.w3.org/2000/svg">
<g clip-path="url(#clip0_14_135)">
<path d="M15 0.000488281C6.73053 0.000488281 0 6.73102 0 15.0005C0 23.27 6.73053 30.0005 15 30.0005C23.2695 30.0005 30 23.27 30 15.0005C30 6.73102 23.2695 0.000488281 15 0.000488281ZM15 2.50049C21.9184 2.50049 27.5 8.08212 27.5 15.0005C27.5 21.2847 22.8896 26.4521 16.8604 27.3491V18.6455H20.4199L20.979 15.0298H16.8604V13.0547C16.8604 11.5534 17.3536 10.2202 18.7573 10.2202H21.0132V7.06592C20.6169 7.01217 19.7784 6.89502 18.1934 6.89502C14.8834 6.89502 12.9443 8.6425 12.9443 12.625V15.0298H9.54101V18.6455H12.9443V27.3174C7.01107 26.3388 2.5 21.2168 2.5 15.0005C2.5 8.08212 8.08164 2.50049 15 2.50049Z" fill="#B9D5FD"/>
</g>
<defs>
<clipPath id="clip0_14_135">
<rect width="30.0008" height="30.0005" fill="white"/>
</clipPath>
</defs>
</svg>
